<svg width="91" height="40" viewBox="0 0 91 40" fill="none" xmlns="http://www.w3.org/2000/svg">
<path fill-rule="evenodd" clip-rule="evenodd" d="M65.7002 3.98089C64.6417 6.19798 62.9977 9.61781 62.0467 11.5803C61.0955 13.5429 60.3175 15.1813 60.3175 15.2211C60.3175 15.2609 61.0681 15.2935 61.9856 15.2935H63.6537L64.5099 13.4974C64.9809 12.5097 65.8631 10.6625 66.4702 9.39276C67.0775 8.12305 67.6364 7.14596 67.7126 7.2215C67.7888 7.29683 68.6977 9.12206 69.7325 11.2776L71.6139 15.1964L73.3094 15.2526C74.2422 15.2834 75.0052 15.276 75.0052 15.236C75.0052 15.1962 74.6863 14.5156 74.2966 13.7236C73.9069 12.9318 72.2685 9.5314 70.656 6.16732C69.0433 2.80322 67.7016 0.0280854 67.6742 0.000318515C67.647 -0.0274485 66.7587 1.76381 65.7002 3.98089ZM0 8.01198V15.3092L6.12457 15.2527L12.2493 15.1964L13.5415 14.5654C15.0735 13.8172 16.2771 12.598 17.0064 11.0557C17.4615 10.0927 17.5273 9.70887 17.5273 8.01198C17.5273 6.31507 17.4615 5.9312 17.0064 4.96829C16.2771 3.42596 15.0735 2.20674 13.5415 1.45857L12.2493 0.827505L6.12457 0.771198L0 0.714691V8.01198ZM19.3878 8.01198V15.2935H20.8565H22.3253V8.01198V0.730417H20.8565H19.3878V8.01198ZM28.7667 1.1875C27.4151 1.73896 26.7142 2.22458 25.7605 3.27138C24.398 4.76672 23.8246 6.84849 24.134 9.17703C24.4462 11.5261 26.0372 13.5996 28.3535 14.6761C29.4663 15.1931 29.5084 15.197 35.0217 15.2935L40.57 15.3906L42.6268 19.0314L44.6835 22.6722H46.1358C46.9346 22.6722 47.5881 22.6417 47.5881 22.6045C47.5881 22.5672 45.6237 18.9627 43.2225 14.5947L38.8572 6.65276L35.0954 6.59994L31.3337 6.5473V8.00771V9.46829L34.3202 9.47159L37.3067 9.47487L38.0411 10.8242C38.4451 11.5663 38.7755 12.2201 38.7755 12.2772C38.7755 12.4646 30.8575 12.3854 30.1744 12.1912C27.3935 11.4003 26.1735 8.14557 27.7253 5.65703C28.1434 4.98635 28.5956 4.57742 29.3519 4.18557L30.3992 3.64305H36.0538H41.7082L42.3959 2.28868C42.7743 1.54382 43.0839 0.88848 43.0839 0.832363C43.0839 0.776247 40.1097 0.732551 36.4744 0.735076C30.0254 0.739542 29.8383 0.750418 28.7667 1.1875ZM44.6506 8.01198V15.2935H46.1194H47.5881V8.01198V0.730417H46.1194H44.6506V8.01198ZM49.3506 2.18674V3.64305H52.2882H55.2257V12.3809V21.1188H56.6945H58.1633V12.3809V3.64305H61.1008H64.0383V2.18674V0.730417H56.6945H49.3506V2.18674ZM75.7885 8.01198V15.2935H83.1323H90.4762V13.8372V12.3809H84.6011H78.726V6.55567V0.730417H77.2573H75.7885V8.01198ZM11.6522 3.86012C13.2467 4.29798 14.6855 6.26713 14.6855 8.01198C14.6855 9.75683 13.2467 11.726 11.6522 12.1638C11.1991 12.2881 9.19743 12.3792 6.90322 12.3797L2.93754 12.3809V8.01198V3.64305L6.90322 3.64419C9.19743 3.64478 11.1991 3.73584 11.6522 3.86012ZM19.8818 28.7489C17.6879 33.3722 14.6971 39.5866 14.5594 39.8082C14.5095 39.8883 15.2597 39.9538 16.2266 39.9538C17.9023 39.9538 17.9918 39.9322 18.1475 39.4909C18.4417 38.6563 21.8048 31.7984 21.9195 31.7988C22.0233 31.7992 24.6992 37.2184 25.5325 39.1165L25.9003 39.9538H37.2966H48.6928L49.7549 39.4198C51.3206 38.6326 51.9674 37.6161 52.06 35.7977C52.1405 34.2155 51.8025 33.2971 50.7885 32.3427C49.7292 31.346 49.0902 31.2159 45.2536 31.2159C41.4992 31.2159 40.9242 31.1052 40.5596 30.3116C40.2539 29.6462 40.285 29.3986 40.7482 28.815L41.1539 28.3033H48.1899H55.2257V34.1285V39.9538H68.4446H81.6636V38.4975V37.0412H69.9134H58.1633V35.5849V34.1285H74.3197H90.4762V32.6722V31.2159H74.3197H58.1633V29.7596V28.3033H69.9134H81.6636V26.847V25.3907H61.1627C40.7683 25.3907 40.6573 25.3928 39.8164 25.7965C37.757 26.7849 36.815 29.4243 37.774 31.5181C38.2127 32.4755 39.5757 33.6726 40.5253 33.934C40.9093 34.0398 42.8164 34.1268 44.7634 34.1274C48.2097 34.1285 48.3145 34.1404 48.7291 34.5779C49.3315 35.2138 49.2915 36.1297 48.6388 36.6386C48.132 37.0342 47.9445 37.0412 37.9898 37.0412H27.8569L27.4548 36.1188C27.2337 35.6116 26.4196 33.8858 25.6457 32.2839C24.8717 30.6819 23.7249 28.3008 23.0971 26.9926C22.4694 25.6845 21.9287 24.6179 21.8958 24.6227C21.8627 24.6276 20.9564 26.4845 19.8818 28.7489ZM0 32.6829V39.9751L5.82612 39.9159C12.2382 39.8507 12.2094 39.8557 13.4723 38.5749C14.3794 37.6551 14.7643 36.507 14.6358 35.1031C14.5747 34.4346 14.3593 33.6703 14.1266 33.2973L13.7234 32.6503L14.2055 31.706C15.3322 29.4996 14.4225 26.7351 12.2478 25.7557C11.5385 25.4361 10.8618 25.3988 5.7282 25.395L0 25.3907V32.6829ZM11.3442 28.815C12.0043 29.647 11.8522 30.4707 10.9527 30.9318C10.58 31.1229 9.7869 31.2159 8.52865 31.2159H6.65842V32.6722V34.1285H8.72351C10.6552 34.1285 10.8199 34.1594 11.2694 34.6052C11.5338 34.8674 11.7502 35.3082 11.7502 35.5849C11.7502 35.8616 11.5338 36.3023 11.2694 36.5645C10.7911 37.0388 10.77 37.0412 6.86307 37.0412H2.93754V32.6722V28.3033H6.93788H10.9384L11.3442 28.815Z" fill="white"/>
</svg>
