<svg width="22" height="20" viewBox="0 0 22 20" fill="none" xmlns="http://www.w3.org/2000/svg">
<path d="M21 10L21.3904 9.68765L21.6403 10L21.3904 10.3123L21 10ZM12 10.5C11.7239 10.5 11.5 10.2761 11.5 10C11.5 9.72386 11.7239 9.5 12 9.5V10.5ZM17.3904 4.68765L21.3904 9.68765L20.6096 10.3123L16.6096 5.31235L17.3904 4.68765ZM21.3904 10.3123L17.3904 15.3123L16.6096 14.6877L20.6096 9.68765L21.3904 10.3123ZM21 10.5H12V9.5H21V10.5Z" fill="#8579B4"/>
<path d="M13 6.13193V5.38851C13 3.77017 13 2.961 12.526 2.4015C12.0521 1.84201 11.2539 1.70899 9.6576 1.44293L7.98639 1.1644C4.7433 0.623883 3.12175 0.353625 2.06088 1.25232C1 2.15102 1 3.79493 1 7.08276V12.9172C1 16.2051 1 17.849 2.06088 18.7477C3.12175 19.6464 4.7433 19.3761 7.98639 18.8356L9.6576 18.5571C11.2539 18.291 12.0521 18.158 12.526 17.5985C13 17.039 13 16.2298 13 14.6115V14.066" stroke="#8579B4"/>
</svg>
