<svg width="20" height="21" viewBox="0 0 20 21" fill="none" xmlns="http://www.w3.org/2000/svg">
<path d="M7 14.1176H3.65555C3.04594 14.1176 2.74114 14.1176 2.4908 14.1836C1.79378 14.3671 1.24941 14.9114 1.06591 15.6085C1 15.8588 1 16.1636 1 16.7732V16.7732C1 17.4984 1 17.861 1.08303 18.1401C1.31536 18.921 1.99818 19.4829 2.80921 19.5606C3.09907 19.5884 3.45489 19.5187 4.16651 19.3791L4.57724 19.2986C5.34313 19.1484 5.72607 19.0733 6.02469 18.8952C6.42286 18.6576 6.72613 18.2891 6.88263 17.8527C7 17.5253 7 17.1351 7 16.3546V5.6448C7 4.06941 7 3.28172 7.45571 2.72797C7.91142 2.17423 8.6844 2.02267 10.2303 1.71954L14.2303 0.935226C16.438 0.502358 17.5418 0.285924 18.2709 0.885952C19 1.48598 19 2.61081 19 4.86048V5.88235M19 11.7647V14.0017C19 14.7822 19 15.1724 18.8826 15.4997C18.7261 15.9362 18.4229 16.3047 18.0247 16.5422C17.7261 16.7204 17.3431 16.7955 16.5772 16.9456L16.1665 17.0262C15.4549 17.1657 15.0991 17.2355 14.8092 17.2077C13.9982 17.13 13.3154 16.568 13.083 15.7871C13 15.508 13 15.1454 13 14.4203V14.4203C13 13.8106 13 13.5058 13.0659 13.2555C13.2494 12.5585 13.7938 12.0141 14.4908 11.8306C14.7411 11.7647 15.0459 11.7647 15.6555 11.7647H19ZM19 11.7647V5.88235M19 5.88235L7 8.23529" stroke="#8579B4"/>
</svg>
