<svg width="20" height="16" viewBox="0 0 20 16" fill="none" xmlns="http://www.w3.org/2000/svg">
<path d="M1 3.898C1 2.87292 1 2.36038 1.20266 1.97025C1.37343 1.64149 1.64149 1.37343 1.97025 1.20266C2.36038 1 2.87292 1 3.898 1H16.102C17.1271 1 17.6396 1 18.0298 1.20266C18.3585 1.37343 18.6266 1.64149 18.7973 1.97025C19 2.36038 19 2.87292 19 3.898V12.102C19 13.1271 19 13.6396 18.7973 14.0298C18.6266 14.3585 18.3585 14.6266 18.0298 14.7973C17.6396 15 17.1271 15 16.102 15H3.898C2.87292 15 2.36038 15 1.97025 14.7973C1.64149 14.6266 1.37343 14.3585 1.20266 14.0298C1 13.6396 1 13.1271 1 12.102V3.898Z" stroke="#8579B4"/>
<path d="M1 5.66684L19 5.66684" stroke="#8579B4" stroke-linecap="round"/>
<ellipse cx="4.17687" cy="11.4999" rx="0.529412" ry="0.583333" fill="#8579B4"/>
</svg>
