<svg width="22" height="16" viewBox="0 0 22 16" fill="none" xmlns="http://www.w3.org/2000/svg">
<path d="M14.3 14.9999V14.4999L14.3025 14.4999L14.3 14.9999ZM8.5586 4.49991L8.99653 4.74119L8.85399 4.99991H8.5586V4.49991ZM14.3025 14.4999C14.3128 14.5 14.3231 14.5 14.3333 14.5V15.5C14.3213 15.5 14.3094 15.5 14.2974 15.4999L14.3025 14.4999ZM14.3333 14.5C17.7164 14.5 20.5 11.6131 20.5 8H21.5C21.5 12.1189 18.3141 15.5 14.3333 15.5V14.5ZM20.5 8C20.5 4.38688 17.7164 1.5 14.3333 1.5V0.5C18.3141 0.5 21.5 3.88113 21.5 8H20.5ZM14.3333 1.5C12.0636 1.5 10.0691 2.79431 8.99653 4.74119L8.12066 4.25864C9.35347 2.021 11.6679 0.5 14.3333 0.5V1.5ZM8.5586 4.99991H5.99967V3.99991H8.5586V4.99991ZM5.99967 4.99991C3.51439 4.99991 1.49968 7.01463 1.49968 9.49991H0.499676C0.499676 6.46235 2.9621 3.99991 5.99967 3.99991V4.99991ZM1.49968 9.49991V9.99992H0.499676V9.49991H1.49968ZM1.49968 9.99992C1.49968 12.4852 3.51439 14.4999 5.99967 14.4999V15.4999C2.96211 15.4999 0.499676 13.0375 0.499676 9.99992H1.49968ZM5.99967 14.4999H14.3V15.4999H5.99967V14.4999Z" fill="#8579B4"/>
<path d="M15.7978 14.8291C17.024 14.5393 18.1471 13.8914 19.0377 12.9602C19.9283 12.029 20.5501 10.8524 20.8313 9.56617C21.1125 8.27992 21.0417 6.93641 20.6271 5.6906C20.2124 4.44479 19.4708 3.34743 18.4878 2.5251C17.5048 1.70277 16.3204 1.18898 15.0712 1.04297C13.8221 0.896968 12.5591 1.12471 11.4279 1.69992C10.2967 2.27513 9.34342 3.17438 8.67799 4.29395C8.01257 5.41352 7.66211 6.70779 7.66704 8.02748" stroke="#8579B4"/>
</svg>
