<svg width="24" height="24" viewBox="0 0 24 24" fill="none" xmlns="http://www.w3.org/2000/svg">
<path d="M21 9.12491V7.57491C21 6.4548 21 5.89475 20.782 5.46693C20.5903 5.0906 20.2843 4.78464 19.908 4.5929C19.4802 4.37491 18.9201 4.37491 17.8 4.37491H6.2C5.0799 4.37491 4.51984 4.37491 4.09202 4.5929C3.71569 4.78464 3.40973 5.0906 3.21799 5.46693C3 5.89475 3 6.4548 3 7.57491V9.12491M21 9.12491V17.7999C21 18.92 21 19.4801 20.782 19.9079C20.5903 20.2842 20.2843 20.5902 19.908 20.7819C19.4802 20.9999 18.9201 20.9999 17.8 20.9999H6.2C5.07989 20.9999 4.51984 20.9999 4.09202 20.7819C3.71569 20.5902 3.40973 20.2842 3.21799 19.9079C3 19.4801 3 18.92 3 17.7999V9.12491M21 9.12491H3" stroke="white"/>
<path d="M7.79981 2L7.7998 5.5625M15.1998 2L15.1998 5.5625" stroke="white" stroke-linecap="round"/>
<circle cx="20" cy="4" r="2.75" fill="#F4CA51" stroke="#14112C" stroke-width="1.5"/>
</svg>
